<svg id="Layer_1" data-name="Layer 1" xmlns="http://www.w3.org/2000/svg" viewBox="0 0 500 500"><defs><style>.cls-1{fill:#fdda00;}.cls-2,.cls-7{fill:#fff;}.cls-3{fill:#9fcd5a;}.cls-4{fill:#88451f;}.cls-4,.cls-9{opacity:0.3;}.cls-5{fill:none;stroke:#000;stroke-width:20px;}.cls-5,.cls-7{stroke-linecap:round;stroke-linejoin:round;}.cls-6{fill:#80572c;}.cls-7{stroke:#2f2f31;stroke-width:20.51px;}.cls-8{fill:#b3814b;}.cls-9{fill:#1b1c1c;}</style></defs><title>beer-bottle-2</title><path class="cls-1" d="M314.66,292c1.08-33-7.52-55.3-14.57-67.89a79,79,0,0,1-9.48-32.43c-3.69-46.66-17.92-149.45-17.92-149.45h-52.2s-14.23,102.79-17.93,149.45a78.87,78.87,0,0,1-9.47,32.43C186,236.73,177.44,259.06,178.52,292c1.36,41.93.59,106,.15,139.89-.12,9.33,6.85,16.93,15.49,16.93H299c8.64,0,15.61-7.6,15.49-16.93C314.07,398.06,313.29,334,314.66,292Z"/><path class="cls-2" d="M207.88,140.47H285.3c-5.47-46.66-12.61-98.21-12.61-98.21h-52.2S213.35,93.81,207.88,140.47Z"/><path class="cls-3" d="M314.25,410.87c-.39-35.29-.71-84.49.41-118.84a154.36,154.36,0,0,0-1.54-27.62c-9.95-5-40.14-18.85-67.33-18.85-26.22,0-54.84,12.9-65.64,18.28A154.31,154.31,0,0,0,178.52,292c1.12,34.53.8,84.05.4,119.38C191.35,416.45,239.69,432.22,314.25,410.87Z"/><path class="cls-4" d="M314.66,292c1.08-33-7.52-55.3-14.57-67.89a79,79,0,0,1-9.48-32.43c-3.69-46.66-17.92-149.45-17.92-149.45H242s14.22,102.79,17.92,149.45a79,79,0,0,0,9.47,32.43C276.44,236.73,285,259.06,284,292c-1.37,41.93-.6,106-.15,139.89.12,9.33-6.85,16.93-15.5,16.93H299c8.64,0,15.61-7.6,15.49-16.93C314.07,398.06,313.29,334,314.66,292Z"/><path class="cls-5" d="M314.66,292c1.08-33-7.52-55.3-14.57-67.89a79,79,0,0,1-9.48-32.43c-3.69-46.66-17.92-149.45-17.92-149.45h-52.2s-14.23,102.79-17.93,149.45a78.87,78.87,0,0,1-9.47,32.43C186,236.73,177.44,259.06,178.52,292c1.36,41.93.59,106,.15,139.89-.12,9.33,6.85,16.93,15.49,16.93H299c8.64,0,15.61-7.6,15.49-16.93C314.07,398.06,313.29,334,314.66,292Z"/><path class="cls-6" d="M232,11.56h27.6a21,21,0,0,1,21,21v9.65a0,0,0,0,1,0,0H211a0,0,0,0,1,0,0V32.61A21,21,0,0,1,232,11.56Z"/><path class="cls-5" d="M232,11.56h27.6a21,21,0,0,1,21,21v9.65a0,0,0,0,1,0,0H211a0,0,0,0,1,0,0V32.61A21,21,0,0,1,232,11.56Z"/><line class="cls-5" x1="216.49" y1="71.97" x2="276.69" y2="71.97"/><circle class="cls-6" cx="246.92" cy="331.76" r="27.63"/><circle class="cls-5" cx="246.92" cy="331.76" r="27.63"/><path class="cls-5" d="M314.25,410.87c-.39-35.29-.71-84.49.41-118.84a154.36,154.36,0,0,0-1.54-27.62c-9.95-5-40.14-18.85-67.33-18.85-26.22,0-54.84,12.9-65.64,18.28A154.31,154.31,0,0,0,178.52,292c1.12,34.53.8,84.05.4,119.38C191.35,416.45,239.69,432.22,314.25,410.87Z"/><path class="cls-1" d="M451.75,292c1.07-33-7.52-55.3-14.57-67.89a78.88,78.88,0,0,1-9.48-32.43C424,145.05,409.78,42.26,409.78,42.26H357.57s-14.22,102.79-17.92,149.45a78.87,78.87,0,0,1-9.47,32.43c-7.05,12.59-15.65,34.92-14.57,67.89,1.36,41.93.59,106,.15,139.89-.12,9.33,6.85,16.93,15.49,16.93H436.11c8.64,0,15.61-7.6,15.49-16.93C451.16,398.06,450.38,334,451.75,292Z"/><path class="cls-2" d="M345,140.47h77.42c-5.48-46.66-12.61-98.21-12.61-98.21H357.57S350.44,93.81,345,140.47Z"/><path class="cls-3" d="M451.34,410.87c-.39-35.29-.71-84.49.41-118.84a155.3,155.3,0,0,0-1.54-27.62c-9.95-5-40.14-18.85-67.33-18.85-26.22,0-54.84,12.9-65.65,18.28A154.37,154.37,0,0,0,315.61,292c1.12,34.53.8,84.05.4,119.38C328.44,416.45,376.78,432.22,451.34,410.87Z"/><path class="cls-4" d="M451.75,292c1.07-33-7.52-55.3-14.57-67.89a78.88,78.88,0,0,1-9.48-32.43C424,145.05,409.78,42.26,409.78,42.26h-30.7S393.3,145.05,397,191.71a78.87,78.87,0,0,0,9.47,32.43c7,12.59,15.65,34.92,14.58,67.89-1.37,41.93-.6,106-.15,139.89.12,9.33-6.85,16.93-15.5,16.93h30.71c8.64,0,15.61-7.6,15.49-16.93C451.16,398.06,450.38,334,451.75,292Z"/><path class="cls-5" d="M451.75,292c1.07-33-7.52-55.3-14.57-67.89a78.88,78.88,0,0,1-9.48-32.43C424,145.05,409.78,42.26,409.78,42.26H357.57s-14.22,102.79-17.92,149.45a78.87,78.87,0,0,1-9.47,32.43c-7.05,12.59-15.65,34.92-14.57,67.89,1.36,41.93.59,106,.15,139.89-.12,9.33,6.85,16.93,15.49,16.93H436.11c8.64,0,15.61-7.6,15.49-16.93C451.16,398.06,450.38,334,451.75,292Z"/><path class="cls-6" d="M369.11,11.56h27.6a21,21,0,0,1,21,21v9.65a0,0,0,0,1,0,0h-69.7a0,0,0,0,1,0,0V32.61A21,21,0,0,1,369.11,11.56Z"/><path class="cls-5" d="M369.11,11.56h27.6a21,21,0,0,1,21,21v9.65a0,0,0,0,1,0,0h-69.7a0,0,0,0,1,0,0V32.61A21,21,0,0,1,369.11,11.56Z"/><line class="cls-5" x1="353.57" y1="71.97" x2="413.78" y2="71.97"/><circle class="cls-6" cx="384.01" cy="331.76" r="27.63"/><circle class="cls-5" cx="384.01" cy="331.76" r="27.63"/><path class="cls-5" d="M451.34,410.87c-.39-35.29-.71-84.49.41-118.84a155.3,155.3,0,0,0-1.54-27.62c-9.95-5-40.14-18.85-67.33-18.85-26.22,0-54.84,12.9-65.65,18.28A154.37,154.37,0,0,0,315.61,292c1.12,34.53.8,84.05.4,119.38C328.44,416.45,376.78,432.22,451.34,410.87Z"/><circle class="cls-7" cx="111.45" cy="336.59" r="27.77"/><path class="cls-1" d="M179.52,292c1.07-33-7.52-55.3-14.57-67.89a78.88,78.88,0,0,1-9.48-32.43c-3.7-46.66-17.92-149.45-17.92-149.45H85.34S71.12,145.05,67.42,191.71A78.87,78.87,0,0,1,58,224.14C50.9,236.73,42.3,259.06,43.38,292c1.36,41.93.59,106,.15,139.89-.12,9.33,6.85,16.93,15.49,16.93H163.88c8.64,0,15.61-7.6,15.49-16.93C178.92,398.06,178.15,334,179.52,292Z"/><path class="cls-2" d="M72.74,140.47h77.42c-5.48-46.66-12.61-98.21-12.61-98.21H85.34S78.21,93.81,72.74,140.47Z"/><path class="cls-3" d="M179.11,410.87c-.39-35.29-.71-84.49.41-118.84A155.3,155.3,0,0,0,178,264.41c-9.95-5-40.14-18.85-67.33-18.85-26.22,0-54.84,12.9-65.65,18.28A153.48,153.48,0,0,0,43.38,292c1.12,34.53.8,84.05.4,119.38C56.21,416.45,104.55,432.22,179.11,410.87Z"/><path class="cls-4" d="M179.52,292c1.07-33-7.52-55.3-14.57-67.89a78.88,78.88,0,0,1-9.48-32.43c-3.7-46.66-17.92-149.45-17.92-149.45h-30.7s14.22,102.79,17.92,149.45a78.87,78.87,0,0,0,9.47,32.43c7,12.59,15.65,34.92,14.58,67.89-1.37,41.93-.6,106-.16,139.89.13,9.33-6.85,16.93-15.49,16.93h30.71c8.64,0,15.61-7.6,15.49-16.93C178.92,398.06,178.15,334,179.52,292Z"/><path class="cls-5" d="M179.52,292c1.07-33-7.52-55.3-14.57-67.89a78.88,78.88,0,0,1-9.48-32.43c-3.7-46.66-17.92-149.45-17.92-149.45H85.34S71.12,145.05,67.42,191.71A78.87,78.87,0,0,1,58,224.14C50.9,236.73,42.3,259.06,43.38,292c1.36,41.93.59,106,.15,139.89-.12,9.33,6.85,16.93,15.49,16.93H163.88c8.64,0,15.61-7.6,15.49-16.93C178.92,398.06,178.15,334,179.52,292Z"/><path class="cls-6" d="M96.88,11.56h27.6a21,21,0,0,1,21,21v9.65a0,0,0,0,1,0,0H75.83a0,0,0,0,1,0,0V32.61A21,21,0,0,1,96.88,11.56Z"/><path class="cls-5" d="M96.88,11.56h27.6a21,21,0,0,1,21,21v9.65a0,0,0,0,1,0,0H75.83a0,0,0,0,1,0,0V32.61A21,21,0,0,1,96.88,11.56Z"/><line class="cls-5" x1="81.34" y1="71.97" x2="141.55" y2="71.97"/><circle class="cls-6" cx="111.78" cy="331.76" r="27.63"/><circle class="cls-5" cx="111.78" cy="331.76" r="27.63"/><path class="cls-5" d="M179.11,410.87c-.39-35.29-.71-84.49.41-118.84A155.3,155.3,0,0,0,178,264.41c-9.95-5-40.14-18.85-67.33-18.85-26.22,0-54.84,12.9-65.65,18.28A153.48,153.48,0,0,0,43.38,292c1.12,34.53.8,84.05.4,119.38C56.21,416.45,104.55,432.22,179.11,410.87Z"/><rect class="cls-8" x="10.15" y="290.19" width="479.71" height="99.13"/><rect class="cls-8" x="10.15" y="290.19" width="479.71" height="198.25"/><path class="cls-9" d="M489.85,488.44V290.19H422.53c-.5.62-1,1.21-1.48,1.84,0,0-15.63,190.17-373.49,196.41Z"/><rect class="cls-5" x="10.15" y="389.32" width="479.71" height="99.13"/><rect class="cls-5" x="10.15" y="290.19" width="479.71" height="99.13"/><line class="cls-5" x1="10.15" y1="339.75" x2="35.49" y2="339.75"/><line class="cls-5" x1="10.15" y1="438.88" x2="35.49" y2="438.88"/><line class="cls-5" x1="489.85" y1="339.75" x2="464.51" y2="339.75"/><line class="cls-5" x1="489.85" y1="438.88" x2="464.51" y2="438.88"/></svg>