<?xml version="1.0" encoding="utf-8"?>
<!-- Generator: Adobe Illustrator 22.0.1, SVG Export Plug-In . SVG Version: 6.00 Build 0)  -->
<svg version="1.1" id="cocktail-1_1_" xmlns="http://www.w3.org/2000/svg" xmlns:xlink="http://www.w3.org/1999/xlink" x="0px"
	 y="0px" viewBox="0 0 500 500" style="enable-background:new 0 0 500 500;" xml:space="preserve">
<style type="text/css">
	.st0{fill:#FFCA36;}
	.st1{fill:#DBDBDB;}
	.st2{fill:#BCBCBC;}
	.st3{fill:none;stroke:#000000;stroke-width:14.668;stroke-linecap:round;stroke-linejoin:round;}
	.st4{fill:#E8B434;}
</style>
<title>cocktail-1</title>
<desc>Created with Sketch.</desc>
<g id="Party">
	<g id="cocktail-1">
		<g id="cocktail" transform="translate(55.000000, 8.000000)">
			<path id="Fill-1" class="st0" d="M79.6,80.3L79.6,80.3h80.1c0,0,0-0.1,0-0.1c0-44-35.6-79.6-79.6-79.6c-44,0-79.6,35.7-79.6,79.6
				c0,44,35.6,79.6,79.6,79.6c16.3,0,31.5-4.9,44.2-13.4C98.1,135.9,79.6,110.2,79.6,80.3"/>
			<path id="Fill-3" class="st1" d="M314.5,485.3c-16.1-19.4-45.3-32.4-78.7-32.4s-62.6,13-78.7,32.4H314.5z"/>
			<path id="Fill-5" class="st2" d="M235.8,452.9c-8.7,0-17.1,0.9-25,2.5c22.7,4.7,41.8,15.5,53.7,29.9h50.1
				C298.4,465.9,269.2,452.9,235.8,452.9"/>
			<path id="Fill-7" class="st1" d="M322.9,151.6H150.1c-36.8,0-66.6-29.8-66.6-66.6v-4.7h305.9V85
				C389.5,121.7,359.6,151.6,322.9,151.6"/>
			<path id="Fill-9" class="st2" d="M365,80.3V85c0,36.8-29.8,66.6-66.6,66.6h24.4c36.8,0,66.6-29.8,66.6-66.6v-4.7H365z"/>
			<path id="Fill-11" class="st0" d="M318.2,151.6H154.8c-0.4,0-0.9,0-1.3,0c0,0,0,0,0,0c0,45.9,37.2,83,83,83s83-37.2,83-83
				c0,0,0,0,0,0C319,151.5,318.6,151.6,318.2,151.6"/>
			<path id="Stroke-13" class="st3" d="M322.9,151.6H150.1c-36.8,0-66.6-29.8-66.6-66.6v-4.7h305.9V85
				C389.5,121.7,359.6,151.6,322.9,151.6z"/>
			<path id="Fill-15" class="st4" d="M319.5,151.5c-0.4,0-0.9,0-1.3,0H295c0,41.7-30.7,76.2-70.8,82.1c4,0.6,8.1,0.9,12.2,0.9
				C282.3,234.6,319.5,197.4,319.5,151.5C319.5,151.6,319.5,151.6,319.5,151.5"/>
			<path id="Stroke-17" class="st3" d="M318.2,151.6H154.8c-0.4,0-0.9,0-1.3,0c0,0,0,0,0,0c0,45.9,37.2,83,83,83s83-37.2,83-83
				c0,0,0,0,0,0C319,151.5,318.6,151.6,318.2,151.6z"/>
			<path id="Stroke-19" class="st3" d="M79.6,80.3V0.5"/>
			<path id="Stroke-21" class="st3" d="M79.6,80.3V0.5"/>
			<path id="Stroke-23" class="st3" d="M79.6,80.3L24.2,23.5"/>
			<path id="Stroke-25" class="st3" d="M79.6,80.3v79.5"/>
			<path id="Stroke-27" class="st3" d="M79.6,80.3L24.3,137"/>
			<path id="Stroke-29" class="st3" d="M79.6,80.3l55.7-57.1"/>
			<path id="Stroke-31" class="st3" d="M79.6,80.3H0.5"/>
			<path id="Stroke-33" class="st3" d="M79.6,80.3L79.6,80.3h80.1c0,0,0-0.1,0-0.1c0-44-35.6-79.6-79.6-79.6
				c-44,0-79.6,35.7-79.6,79.6c0,44,35.6,79.6,79.6,79.6c16.3,0,31.5-4.9,44.2-13.4C98.1,135.9,79.6,110.2,79.6,80.3z"/>
			<path id="Stroke-35" class="st3" d="M236.5,234.6v215.7"/>
			<path id="Stroke-37" class="st3" d="M314.5,485.3c-16.1-19.4-45.3-32.4-78.7-32.4s-62.6,13-78.7,32.4H314.5z"/>
		</g>
	</g>
</g>
</svg>
