<svg id="Layer_1" data-name="Layer 1" xmlns="http://www.w3.org/2000/svg" viewBox="0 0 500 500"><defs><style>.cls-1{fill:#cb9964;}.cls-2{opacity:0.3;}.cls-3{fill:none;stroke:#000;stroke-linecap:round;stroke-linejoin:round;stroke-width:20.2px;}</style></defs><title>croissant</title><path class="cls-1" d="M428.87,242.55c-.48-36.49-25.68-70.76-65.77-81.59l-27-7.29c-10.81-25.22-36.81-42.27-70.23-42.27H234.1c-33.42,0-59.42,17-70.23,42.27l-27,7.29c-40.09,10.83-65.29,45.1-65.77,81.59-34.67,22.38-69,59.83-58.34,117.89,9.74,52.91,70.95,18.93,112.27-8.37a58.89,58.89,0,0,0,48.42,8l25-6.75c11.14,16,30.26,26.32,51.54,26.32h0c21.28,0,40.4-10.3,51.54-26.32l25,6.75a58.89,58.89,0,0,0,48.42-8c41.32,27.3,102.53,61.28,112.27,8.37C497.9,302.38,463.54,264.93,428.87,242.55Z"/><path class="cls-2" d="M486.55,317.09c-11.49,48.64-42.33,28-82.85,1.25-13.63,9.28-60.13.09-77.18-4.52l-9.84-2.66c-11.05,15.87-44.78,22.11-66.09,22.22v0c-.2,0-.39,0-.59,0s-.39,0-.59,0v0c-21.31-.11-55-6.35-66.09-22.22l-9.84,2.66c-17,4.61-63.55,13.8-77.18,4.52-40.52,26.77-71.36,47.39-82.85-1.25a106.14,106.14,0,0,0-.66,43.69c9.75,52.94,71,18.9,112.31-8.4a58.84,58.84,0,0,0,48.38,8.06l25-6.77c11,15.86,29.86,26.11,50.89,26.3h0c.2,0,.39,0,.59,0s.39,0,.59,0h0c21-.19,39.86-10.44,50.89-26.3l25,6.77a58.84,58.84,0,0,0,48.38-8.06c41.33,27.3,102.56,61.34,112.31,8.4A106.14,106.14,0,0,0,486.55,317.09Z"/><path class="cls-3" d="M250,379.67h0c-29.72,0-55.22-20.09-60.67-47.79L159.91,196.09c-9.17-46.58,24.21-84.69,74.19-84.69h31.8c50,0,83.36,38.11,74.19,84.69L310.67,331.88C305.22,359.58,279.72,379.67,250,379.67Z"/><path class="cls-3" d="M189.33,331.88,159.91,196.09c-3-15.43-1.4-29.93,4-42.42l-27,7.29c-54.61,14.75-81.58,73-56.1,121.09l26.79,50.6c12.16,23,39.83,34.49,65.89,27.45l25-6.75A56.83,56.83,0,0,1,189.33,331.88Z"/><path class="cls-3" d="M363.1,161l-27-7.29c5.36,12.49,7,27,4,42.42L310.67,331.88a56.83,56.83,0,0,1-9.13,21.47l25,6.75c26.06,7,53.73-4.48,65.89-27.45l26.79-50.6C444.68,233.94,417.71,175.71,363.1,161Z"/><path class="cls-3" d="M428.87,242.55a81.82,81.82,0,0,1-9.67,39.5l-26.79,50.6a54.14,54.14,0,0,1-17.47,19.42c41.32,27.3,102.53,61.28,112.27,8.37C497.9,302.38,463.54,264.93,428.87,242.55Z"/><path class="cls-3" d="M107.59,332.65,80.8,282.05a81.71,81.71,0,0,1-9.67-39.5c-34.67,22.38-69,59.83-58.34,117.89,9.74,52.91,70.95,18.93,112.27-8.37A54.14,54.14,0,0,1,107.59,332.65Z"/></svg>