<svg id="icons" xmlns="http://www.w3.org/2000/svg" viewBox="0 0 110 110"><title>whiskey-bottle-glass</title><circle cx="55" cy="55" r="55" fill="#ffd147"/><g id="whiskey-bottle-glass"><g id="bottle"><path d="M33,43a3,3,0,0,0,3-3V37h8v3a3,3,0,0,0,3,3" fill="#e5e8ec"/><path d="M47,43h5.4A2.63,2.63,0,0,1,55,45.64V82.36A2.63,2.63,0,0,1,52.4,85H27.6A2.63,2.63,0,0,1,25,82.36V45.64A2.63,2.63,0,0,1,27.6,43H33" fill="#fff"/><path d="M53,43a2,2,0,0,1,2,2V83.36A2.63,2.63,0,0,1,52.4,86H30.6A2.63,2.63,0,0,1,28,83.36V46a3,3,0,0,1,3-3Z" fill="#f2633a"/><path d="M40,79c-5.35,0-9.92,2.28-12,5.53A1.51,1.51,0,0,0,29,85H51a1.51,1.51,0,0,0,1-.47C49.93,81.28,45.36,79,40,79Z" fill="#6d1c3a" opacity="0.3"/><path d="M44,40a3,3,0,0,0,3,3h5.4A2.63,2.63,0,0,1,55,45.64V82.36A2.63,2.63,0,0,1,52.4,85H27.6A2.63,2.63,0,0,1,25,82.36V45.64A2.63,2.63,0,0,1,27.6,43H33a3,3,0,0,0,3-3V37h8Z" fill="none" stroke="#6e2a27" stroke-miterlimit="10" stroke-width="2"/><path d="M49,72H31V52H49V72Z" fill="#fff"/><path d="M49,72H31V52H49V72Z" fill="none" stroke="#6e2a27" stroke-miterlimit="10" stroke-width="2"/><path d="M37,25h6a1,1,0,0,1,1,1V37a0,0,0,0,1,0,0H36a0,0,0,0,1,0,0V26A1,1,0,0,1,37,25Z" fill="#ccd1d9"/><rect x="36" y="25" width="3" height="12" fill="#fff"/><rect x="36" y="33" width="8" height="4" fill="#ffd147"/><line x1="44" y1="37" x2="36" y2="37" fill="none" stroke="#6e2a27" stroke-miterlimit="10" stroke-width="2"/><line x1="36" y1="33" x2="44" y2="33" fill="none" stroke="#6e2a27" stroke-miterlimit="10" stroke-width="2"/><line x1="35" y1="67" x2="45" y2="67" fill="none" stroke="#6e2a27" stroke-miterlimit="10" stroke-width="2"/><line x1="35" y1="63" x2="45" y2="63" fill="none" stroke="#6e2a27" stroke-miterlimit="10" stroke-width="2"/><path d="M35.84,59.46a4.72,4.72,0,0,1,8-.46q.17.22.32.46" fill="none" stroke="#6e2a27" stroke-linejoin="round" stroke-width="2"/><path d="M36,39V26a1,1,0,0,1,1-1h6a1,1,0,0,1,1,1V39" fill="none" stroke="#6e2a27" stroke-miterlimit="10" stroke-width="2"/></g><g id="glass"><polygon points="59 56 85 56 81.75 84 62.25 84 59 56" fill="#fff"/><polygon points="62 56 85 56 82 84 65.25 84 62 56" fill="#ffd147"/><polyline points="84.07 64 81.75 84 65.25 84 62.93 64" fill="#f2633a"/><path d="M69,64l2.29-2.29a1,1,0,0,1,1.41,0L75,64" fill="#fff"/><path d="M75,64l2.29,2.29a1,1,0,0,1,0,1.41l-4.59,4.59a1,1,0,0,1-1.41,0l-4.59-4.59a1,1,0,0,1,0-1.41L69,64" fill="#6d1c3a" opacity="0.3"/><polygon points="59 56 85 56 81.75 84 62.25 84 59 56" fill="none" stroke="#6e2a27" stroke-linecap="round" stroke-linejoin="round" stroke-width="2"/></g></g></svg>